
		<svg xmlns="http://www.w3.org/2000/svg" xmlns:xlink="http://www.w3.org/1999/xlink" version="1.1" width="3136.986301369863" height="821.917808219178">
			
			<g transform="scale(6.8493150684931505) translate(10, 10)">
				<defs id="SvgjsDefs1017"/><g id="SvgjsG1018" featureKey="root" fill="#fff"/><g id="SvgjsG1019" featureKey="symbol1" fill="#fff" transform="matrix(0.875,0,0,0.875,-8.75,1.25)"><path xmlns="http://www.w3.org/2000/svg" d="M35,65.833c0-8.587,3.535-16.36,9.219-21.956c-3.063-1.406-6.458-2.21-10.052-2.21C20.82,41.667,10,52.487,10,65.833  C10,79.18,20.82,90,34.167,90c3.594,0,6.988-0.804,10.052-2.21C38.535,82.194,35,74.421,35,65.833z"/><path xmlns="http://www.w3.org/2000/svg" d="M65.833,65c-8.587,0-16.36-3.535-21.956-9.222c-1.406,3.066-2.21,6.461-2.21,10.055C41.667,79.18,52.487,90,65.833,90  C79.18,90,90,79.18,90,65.833c0-3.594-0.804-6.988-2.21-10.055C82.194,61.465,74.421,65,65.833,65z"/><path xmlns="http://www.w3.org/2000/svg" d="M65.833,10c-3.594,0-6.988,0.804-10.055,2.21C61.465,17.806,65,25.579,65,34.167c0,8.587-3.535,16.36-9.222,21.956  c3.066,1.406,6.461,2.21,10.055,2.21C79.18,58.333,90,47.513,90,34.167C90,20.82,79.18,10,65.833,10z"/><path xmlns="http://www.w3.org/2000/svg" d="M34.167,35c8.587,0,16.36,3.535,21.956,9.219c1.406-3.063,2.21-6.458,2.21-10.052C58.333,20.82,47.513,10,34.167,10  C20.82,10,10,20.82,10,34.167c0,3.594,0.804,6.988,2.21,10.052C17.806,38.535,25.579,35,34.167,35z"/></g><g id="SvgjsG1020" featureKey="text1" fill="#fff" transform="matrix(3.31491670788717,0,0,3.31491670788717,92.10497191982729,-13.149167078871699)"><path d="M10.26 23.52 l0 -6.04 l-7.2 0 l0 6.04 c0 0.26 -0.22 0.48 -0.5 0.48 c-0.26 0 -0.48 -0.22 -0.48 -0.48 l0 -13.04 c0 -0.26 0.22 -0.48 0.48 -0.48 c0.28 0 0.5 0.22 0.5 0.48 l0 6.04 l7.2 0 l0 -6.04 c0 -0.26 0.22 -0.48 0.48 -0.48 c0.28 0 0.5 0.22 0.5 0.48 l0 13.04 c0 0.26 -0.22 0.48 -0.5 0.48 c-0.26 0 -0.48 -0.22 -0.48 -0.48 z M20.1 24 c-2.64 0 -4.76 -2.2 -4.76 -4.88 c0 -2.72 2.12 -4.92 4.76 -4.92 c2.52 0 4.52 2 4.72 4.56 l0 0.02 l0 0.06 c0 0.26 -0.22 0.44 -0.48 0.44 l-8.04 0 c0.1 2.14 1.78 3.76 3.8 3.76 c1.3 0 2.5 -0.68 3.16 -1.78 c0.14 -0.24 0.44 -0.28 0.64 -0.16 c0.22 0.16 0.3 0.44 0.16 0.68 c-0.84 1.34 -2.3 2.22 -3.96 2.22 z M20.1 15.16 c-1.84 0 -3.38 1.32 -3.74 3.18 l7.42 0 c-0.32 -1.84 -1.88 -3.18 -3.68 -3.18 z M28.36 23.52 l0 -13.04 c0 -0.26 0.22 -0.48 0.48 -0.48 l0 0 c0.28 0 0.5 0.22 0.5 0.48 l0 0 l0 13.04 c0 0.26 -0.22 0.48 -0.5 0.48 l0 0 c-0.26 0 -0.48 -0.22 -0.48 -0.48 l0 0 z M33.2 27.62 l0 -8.36 l0 -0.2 l0 -0.2 l0 -4.18 c0 -0.26 0.22 -0.48 0.48 -0.48 c0.28 0 0.5 0.22 0.5 0.48 l0 1.42 c0.84 -1.14 2.2 -1.9 3.72 -1.9 c2.64 0 4.74 2.18 4.74 4.86 c0 2.66 -2.1 4.88 -4.74 4.88 c-1.52 0 -2.88 -0.76 -3.72 -1.92 l0 5.6 c0 0.26 -0.22 0.48 -0.5 0.48 c-0.26 0 -0.48 -0.22 -0.48 -0.48 z M34.18 18.9 l0 0.16 c0 2.16 1.7 3.9 3.72 3.92 c2.08 -0.02 3.76 -1.76 3.76 -3.92 s-1.68 -3.88 -3.76 -3.88 c-1.98 0 -3.64 1.64 -3.72 3.72 z M46.62 23.52 l0 -13.04 c0 -0.26 0.2 -0.46 0.46 -0.48 l0.08 0 l7.16 0 c0.26 0 0.48 0.22 0.48 0.48 c0 0.28 -0.22 0.5 -0.48 0.5 l-6.72 0 l0 5.54 l5.88 0 c0.28 0 0.5 0.22 0.5 0.5 c0 0.26 -0.22 0.48 -0.5 0.48 l-5.88 0 l0 6.02 c0 0.26 -0.22 0.48 -0.5 0.48 c-0.26 0 -0.48 -0.22 -0.48 -0.48 z M58.04 19.1 c0 -2.66 2.08 -4.9 4.64 -4.9 l0 0 c2.58 0 4.64 2.24 4.64 4.9 l0 0 c0 2.66 -2.06 4.9 -4.64 4.9 l0 0 c-2.56 0 -4.64 -2.24 -4.64 -4.9 l0 0 z M59 19.1 c0 2.18 1.68 3.94 3.68 3.94 l0 0 c2 0 3.68 -1.76 3.68 -3.94 l0 0 c0 -2.18 -1.68 -3.96 -3.68 -3.96 l0 0 c-2 0 -3.68 1.78 -3.68 3.96 l0 0 z M70.8 20 l0 -5.34 c0 -0.28 0.22 -0.48 0.48 -0.48 l0 0 c0.26 0 0.48 0.2 0.48 0.48 l0 0 l0 5.34 c0 1.68 1.34 3.02 3 3.04 l0 0 c1.68 -0.02 3.04 -1.36 3.04 -3.04 l0 0 l0 -5.34 l0 0 c0 -0.28 0.24 -0.48 0.48 -0.48 l0 0 c0.28 0 0.5 0.2 0.5 0.48 l0 0 l0 5.34 c0 2.2 -1.78 4 -4.02 4 l0 0 c-2.2 0 -3.96 -1.8 -3.96 -4 l0 0 z M90.26 23.52 l0 -5.32 c0 -1.66 -1.34 -3.02 -3.02 -3.02 c-1.66 0 -3 1.36 -3.04 3.02 l0 5.32 l0 0.08 c-0.02 0.08 -0.04 0.16 -0.1 0.22 c-0.08 0.12 -0.22 0.18 -0.36 0.18 l-0.12 0 c-0.14 -0.04 -0.26 -0.14 -0.32 -0.26 c-0.02 -0.02 -0.02 -0.04 -0.02 -0.06 s-0.02 -0.04 -0.02 -0.04 l0 -0.12 l0 -5.32 l0 -0.16 l0 -3.34 c0 -0.26 0.2 -0.48 0.48 -0.48 c0.26 0 0.46 0.22 0.46 0.48 l0 0.94 c0.72 -0.86 1.82 -1.42 3.04 -1.42 c2.2 0 3.98 1.8 3.98 3.98 l0 5.32 c0 0.28 -0.22 0.48 -0.48 0.48 s-0.48 -0.2 -0.48 -0.48 z M103.36000000000001 23.52 l0 -1.42 c-0.86 1.16 -2.22 1.9 -3.76 1.9 c-2.64 0 -4.74 -2.2 -4.74 -4.88 c0 -2.72 2.1 -4.92 4.74 -4.92 c1.54 0 2.9 0.76 3.76 1.92 l0 -5.64 c0 -0.26 0.22 -0.48 0.5 -0.48 c0.26 0 0.48 0.22 0.48 0.48 l0 8.44 l0 0.2 l0 4.4 c0 0.26 -0.22 0.48 -0.48 0.48 c-0.28 0 -0.5 -0.22 -0.5 -0.48 z M99.60000000000001 23.02 c2.02 0 3.68 -1.66 3.76 -3.74 l0 -0.32 c-0.08 -2.1 -1.74 -3.78 -3.76 -3.78 c-2.06 0 -3.76 1.76 -3.76 3.94 c0 2.16 1.7 3.9 3.76 3.9 z"/></g>
			</g>
		</svg>
	